<svg width="30" height="30" viewBox="0 0 30 30" fill="none" xmlns="http://www.w3.org/2000/svg">
<path d="M15.0449 20.4248C17.5843 20.4248 20.0198 21.4339 21.8154 23.2295C23.1814 24.5955 24.0926 26.3316 24.4502 28.2021C24.6377 29.1831 23.8102 30 22.8115 30H20.2051C19.2064 30 18.433 29.1351 17.9199 28.2783C17.7798 28.0444 17.6111 27.8259 17.415 27.6299C16.7866 27.0015 15.9337 26.6484 15.0449 26.6484C14.1564 26.6485 13.3042 27.0017 12.6758 27.6299C12.4797 27.8259 12.31 28.0444 12.1699 28.2783C11.6568 29.135 10.8843 29.9999 9.88574 30H7.27832C6.27969 29.9999 5.45312 29.183 5.64062 28.2021C5.99822 26.3317 6.90853 24.5954 8.27441 23.2295C10.07 21.4339 12.5056 20.4249 15.0449 20.4248ZM0 7.27832C8.98526e-05 6.27969 0.81696 5.45312 1.79785 5.64062C3.66833 5.99823 5.40458 6.90853 6.77051 8.27441C8.56611 10.07 9.57512 12.5056 9.5752 15.0449C9.5752 17.5843 8.56607 20.0198 6.77051 21.8154C5.40454 23.1814 3.66841 24.0926 1.79785 24.4502C0.816906 24.6377 -4.36549e-08 23.8102 0 22.8115V20.2051C4.36549e-08 19.2064 0.864864 18.433 1.72168 17.9199C1.95559 17.7798 2.17409 17.6111 2.37012 17.415C2.99849 16.7866 3.35156 15.9337 3.35156 15.0449C3.35149 14.1564 2.9983 13.3042 2.37012 12.6758C2.17407 12.4797 1.95562 12.31 1.72168 12.1699C0.864958 11.6568 6.52589e-05 10.8843 0 9.88574V7.27832ZM28.2021 5.64062C29.183 5.45312 29.9999 6.27969 30 7.27832V9.88574C29.9999 10.8843 29.135 11.6568 28.2783 12.1699C28.0444 12.31 27.8259 12.4797 27.6299 12.6758C27.0017 13.3042 26.6485 14.1564 26.6484 15.0449C26.6484 15.9337 27.0015 16.7866 27.6299 17.415C27.8259 17.6111 28.0444 17.7798 28.2783 17.9199C29.1351 18.433 30 19.2064 30 20.2051V22.8115C30 23.8102 29.1831 24.6377 28.2021 24.4502C26.3315 24.0926 24.5955 23.1814 23.2295 21.8154C21.4339 20.0198 20.4248 17.5843 20.4248 15.0449C20.4249 12.5056 21.4339 10.07 23.2295 8.27441C24.5954 6.90854 26.3317 5.99821 28.2021 5.64062ZM9.88574 0C10.8843 6.68227e-05 11.6568 0.864972 12.1699 1.72168C12.31 1.95562 12.4797 2.17407 12.6758 2.37012C13.3042 2.99832 14.1564 3.35149 15.0449 3.35156C15.9337 3.35156 16.7866 2.99851 17.415 2.37012C17.6111 2.17407 17.7798 1.95561 17.9199 1.72168C18.433 0.864864 19.2064 -2.3811e-07 20.2051 0H22.8115C23.8102 2.3811e-07 24.6377 0.816906 24.4502 1.79785C24.0926 3.66843 23.1814 5.40453 21.8154 6.77051C20.0198 8.56609 17.5843 9.5752 15.0449 9.5752C12.5056 9.57512 10.07 8.56611 8.27441 6.77051C6.90853 5.40457 5.99822 3.66834 5.64062 1.79785C5.45312 0.816959 6.27969 8.83549e-05 7.27832 0H9.88574Z" fill="#1E1E1E"/>
</svg>
