<svg width="48" height="48" viewBox="0 0 48 48" fill="none" xmlns="http://www.w3.org/2000/svg">
<g clip-path="url(#clip0_381_295)">
<path d="M0 48L3.39255 35.6806C1.29513 32.0646 0.194842 27.9696 0.206304 23.7833C0.206304 10.6654 10.9341 0 24.1031 0C30.4985 0 36.5043 2.47529 41.0086 6.96958C45.5243 11.4639 48.0114 17.4411 48 23.7947C48 36.9126 37.2722 47.578 24.0917 47.578H24.0802C20.0802 47.578 16.149 46.5742 12.6533 44.6806L0 48ZM13.2607 40.3802L13.9828 40.8137C17.0315 42.616 20.5272 43.5627 24.0917 43.5742H24.1031C35.0487 43.5742 43.9656 34.711 43.9656 23.8061C43.9656 18.5247 41.9025 13.5627 38.1547 9.82129C34.4068 6.07985 29.4097 4.02662 24.1031 4.02662C13.1576 4.01521 4.24068 12.8783 4.24068 23.7833C4.24068 27.5133 5.28366 31.1521 7.27793 34.3004L7.74785 35.0532L5.74212 42.3422L13.2607 40.3802Z" fill="white"/>
<path d="M0.836914 47.1673L4.11485 35.2699C2.0862 31.7908 1.02029 27.8327 1.02029 23.7946C1.03176 11.133 11.3813 0.832642 24.1034 0.832642C30.281 0.832642 36.069 3.22808 40.4243 7.56268C44.7796 11.8973 47.175 17.6691 47.175 23.806C47.175 36.4676 36.814 46.768 24.1034 46.768H24.0919C20.2295 46.768 16.4358 45.7984 13.0661 43.9733L0.836914 47.1673Z" fill="url(#paint0_linear_381_295)"/>
<path d="M0 48L3.39255 35.6806C1.29513 32.0646 0.194842 27.9696 0.206304 23.7833C0.206304 10.6654 10.9341 0 24.1031 0C30.4985 0 36.5043 2.47529 41.0086 6.96958C45.5243 11.4639 48.0114 17.4411 48 23.7947C48 36.9126 37.2722 47.578 24.0917 47.578H24.0802C20.0802 47.578 16.149 46.5742 12.6533 44.6806L0 48ZM13.2607 40.3802L13.9828 40.8137C17.0315 42.616 20.5272 43.5627 24.0917 43.5742H24.1031C35.0487 43.5742 43.9656 34.711 43.9656 23.8061C43.9656 18.5247 41.9025 13.5627 38.1547 9.82129C34.4068 6.07985 29.4097 4.02662 24.1031 4.02662C13.1576 4.01521 4.24068 12.8783 4.24068 23.7833C4.24068 27.5133 5.28366 31.1521 7.27793 34.3004L7.74785 35.0532L5.74212 42.3422L13.2607 40.3802Z" fill="url(#paint1_linear_381_295)"/>
<path fill-rule="evenodd" clip-rule="evenodd" d="M18.132 13.8365C17.685 12.8441 17.2151 12.8213 16.791 12.8099C16.4472 12.7985 16.046 12.7985 15.6449 12.7985C15.2438 12.7985 14.6019 12.9468 14.0518 13.5399C13.5016 14.1331 11.9658 15.5703 11.9658 18.5019C11.9658 21.422 14.1091 24.2509 14.4071 24.6502C14.7051 25.0494 18.5446 31.2433 24.6076 33.6274C29.6506 35.6122 30.6821 35.2129 31.771 35.1103C32.8598 35.0076 35.301 33.673 35.8053 32.2814C36.2982 30.8897 36.2982 29.7034 36.1492 29.4525C36.0002 29.2015 35.599 29.0532 35.0031 28.7566C34.4071 28.4601 31.473 27.0228 30.9228 26.8175C30.3727 26.6236 29.9715 26.5209 29.5819 27.1141C29.1807 27.7072 28.0346 29.0418 27.6907 29.4411C27.3469 29.8403 26.9916 29.8859 26.3956 29.5893C25.7996 29.2928 23.8741 28.6654 21.5933 26.635C19.8168 25.0608 18.6134 23.1103 18.2695 22.5171C17.9257 21.9239 18.2352 21.6045 18.5332 21.308C18.7968 21.0456 19.1291 20.6122 19.4271 20.2699C19.7251 19.9277 19.8283 19.6768 20.0231 19.2776C20.218 18.8783 20.1263 18.5361 19.9773 18.2395C19.8283 17.9544 18.6592 15.0114 18.132 13.8365Z" fill="white"/>
</g>
<defs>
<linearGradient id="paint0_linear_381_295" x1="24.0047" y1="47.165" x2="24.0047" y2="0.83102" gradientUnits="userSpaceOnUse">
<stop stop-color="#20B038"/>
<stop offset="1" stop-color="#60D66A"/>
</linearGradient>
<linearGradient id="paint1_linear_381_295" x1="24.0047" y1="47.9955" x2="24.0047" y2="0" gradientUnits="userSpaceOnUse">
<stop stop-color="#F9F9F9"/>
<stop offset="1" stop-color="white"/>
</linearGradient>
<clipPath id="clip0_381_295">
<rect width="48" height="48" fill="white"/>
</clipPath>
</defs>
</svg>
